<mxfile host="Electron" agent="Mozilla/5.0 (Windows NT 10.0; Win64; x64) AppleWebKit/537.36 (KHTML, like Gecko) draw.io/25.0.2 Chrome/128.0.6613.186 Electron/32.2.5 Safari/537.36" version="25.0.2">
  <diagram name="StrÃ¡nka-1" id="sOJdRBg2l6jmoNzy4xBh">
    <mxGraphModel dx="2866" dy="844" grid="1" gridSize="10" guides="1" tooltips="1" connect="1" arrows="1" fold="1" page="1" pageScale="1" pageWidth="980" pageHeight="1390" math="0" shadow="0">
      <root>
        <mxCell id="0" />
        <mxCell id="1" parent="0" />
        <mxCell id="8_MltZdfGdoI-M6Byp3I-1" value="Answer" style="rounded=0;whiteSpace=wrap;html=1;" parent="1" vertex="1">
          <mxGeometry x="180" y="260" width="110" height="40" as="geometry" />
        </mxCell>
        <mxCell id="8_MltZdfGdoI-M6Byp3I-2" value="" style="endArrow=none;html=1;rounded=0;exitX=1;exitY=0;exitDx=0;exitDy=0;" parent="1" source="8_MltZdfGdoI-M6Byp3I-1" target="8_MltZdfGdoI-M6Byp3I-3" edge="1">
          <mxGeometry width="50" height="50" relative="1" as="geometry">
            <mxPoint x="320" y="340" as="sourcePoint" />
            <mxPoint x="330" y="210" as="targetPoint" />
          </mxGeometry>
        </mxCell>
        <mxCell id="8_MltZdfGdoI-M6Byp3I-3" value="is_used" style="ellipse;whiteSpace=wrap;html=1;" parent="1" vertex="1">
          <mxGeometry x="320" y="170" width="100" height="40" as="geometry" />
        </mxCell>
        <mxCell id="8_MltZdfGdoI-M6Byp3I-4" value="is_correct" style="ellipse;whiteSpace=wrap;html=1;" parent="1" vertex="1">
          <mxGeometry x="220" y="160" width="100" height="40" as="geometry" />
        </mxCell>
        <mxCell id="8_MltZdfGdoI-M6Byp3I-5" value="" style="endArrow=none;html=1;rounded=0;exitX=0.5;exitY=1;exitDx=0;exitDy=0;entryX=0.75;entryY=0;entryDx=0;entryDy=0;" parent="1" source="8_MltZdfGdoI-M6Byp3I-4" target="8_MltZdfGdoI-M6Byp3I-1" edge="1">
          <mxGeometry width="50" height="50" relative="1" as="geometry">
            <mxPoint x="320" y="340" as="sourcePoint" />
            <mxPoint x="370" y="290" as="targetPoint" />
          </mxGeometry>
        </mxCell>
        <mxCell id="8_MltZdfGdoI-M6Byp3I-6" value="" style="endArrow=none;html=1;rounded=0;exitX=0.5;exitY=0;exitDx=0;exitDy=0;entryX=1;entryY=1;entryDx=0;entryDy=0;" parent="1" source="8_MltZdfGdoI-M6Byp3I-1" target="8_MltZdfGdoI-M6Byp3I-8" edge="1">
          <mxGeometry width="50" height="50" relative="1" as="geometry">
            <mxPoint x="320" y="340" as="sourcePoint" />
            <mxPoint x="211.18821272928642" y="234.17143307730498" as="targetPoint" />
          </mxGeometry>
        </mxCell>
        <mxCell id="8_MltZdfGdoI-M6Byp3I-8" value="text" style="ellipse;whiteSpace=wrap;html=1;" parent="1" vertex="1">
          <mxGeometry x="110" y="160" width="100" height="40" as="geometry" />
        </mxCell>
        <mxCell id="8_MltZdfGdoI-M6Byp3I-9" value="ID" style="ellipse;whiteSpace=wrap;html=1;align=center;fontStyle=4;" parent="1" vertex="1">
          <mxGeometry x="10" y="250" width="100" height="40" as="geometry" />
        </mxCell>
        <mxCell id="8_MltZdfGdoI-M6Byp3I-10" value="" style="endArrow=none;html=1;rounded=0;exitX=1;exitY=0.5;exitDx=0;exitDy=0;" parent="1" source="8_MltZdfGdoI-M6Byp3I-9" edge="1">
          <mxGeometry relative="1" as="geometry">
            <mxPoint x="270" y="320" as="sourcePoint" />
            <mxPoint x="180" y="280" as="targetPoint" />
          </mxGeometry>
        </mxCell>
        <mxCell id="8_MltZdfGdoI-M6Byp3I-11" value="&lt;span style=&quot;border-bottom: 1px dotted&quot;&gt;quiz_id&lt;/span&gt;" style="ellipse;whiteSpace=wrap;html=1;align=center;" parent="1" vertex="1">
          <mxGeometry x="10" y="190" width="100" height="40" as="geometry" />
        </mxCell>
        <mxCell id="8_MltZdfGdoI-M6Byp3I-12" value="" style="endArrow=none;html=1;rounded=0;exitX=1;exitY=0.5;exitDx=0;exitDy=0;entryX=0;entryY=0;entryDx=0;entryDy=0;" parent="1" source="8_MltZdfGdoI-M6Byp3I-11" target="8_MltZdfGdoI-M6Byp3I-1" edge="1">
          <mxGeometry relative="1" as="geometry">
            <mxPoint x="270" y="320" as="sourcePoint" />
            <mxPoint x="430" y="320" as="targetPoint" />
          </mxGeometry>
        </mxCell>
        <mxCell id="8_MltZdfGdoI-M6Byp3I-13" value="Contains" style="shape=rhombus;perimeter=rhombusPerimeter;whiteSpace=wrap;html=1;align=center;" parent="1" vertex="1">
          <mxGeometry x="370" y="250" width="120" height="60" as="geometry" />
        </mxCell>
        <mxCell id="8_MltZdfGdoI-M6Byp3I-14" value="" style="endArrow=none;html=1;rounded=0;exitX=1;exitY=0.5;exitDx=0;exitDy=0;entryX=0;entryY=0.5;entryDx=0;entryDy=0;" parent="1" source="8_MltZdfGdoI-M6Byp3I-1" target="8_MltZdfGdoI-M6Byp3I-13" edge="1">
          <mxGeometry relative="1" as="geometry">
            <mxPoint x="270" y="320" as="sourcePoint" />
            <mxPoint x="430" y="320" as="targetPoint" />
          </mxGeometry>
        </mxCell>
        <mxCell id="8_MltZdfGdoI-M6Byp3I-15" value="Question" style="whiteSpace=wrap;html=1;align=center;" parent="1" vertex="1">
          <mxGeometry x="570" y="260" width="100" height="40" as="geometry" />
        </mxCell>
        <mxCell id="8_MltZdfGdoI-M6Byp3I-16" value="" style="endArrow=none;html=1;rounded=0;exitX=1;exitY=0.5;exitDx=0;exitDy=0;entryX=0;entryY=0.5;entryDx=0;entryDy=0;" parent="1" edge="1">
          <mxGeometry relative="1" as="geometry">
            <mxPoint x="490" y="279.76" as="sourcePoint" />
            <mxPoint x="570" y="279.76" as="targetPoint" />
          </mxGeometry>
        </mxCell>
        <mxCell id="8_MltZdfGdoI-M6Byp3I-18" value="ID" style="ellipse;whiteSpace=wrap;html=1;align=center;fontStyle=4;" parent="1" vertex="1">
          <mxGeometry x="460" y="190" width="100" height="40" as="geometry" />
        </mxCell>
        <mxCell id="8_MltZdfGdoI-M6Byp3I-19" value="prompt" style="ellipse;whiteSpace=wrap;html=1;align=center;" parent="1" vertex="1">
          <mxGeometry x="530" y="130" width="100" height="40" as="geometry" />
        </mxCell>
        <mxCell id="8_MltZdfGdoI-M6Byp3I-20" value="image_url" style="ellipse;whiteSpace=wrap;html=1;align=center;" parent="1" vertex="1">
          <mxGeometry x="650" y="130" width="100" height="40" as="geometry" />
        </mxCell>
        <mxCell id="8_MltZdfGdoI-M6Byp3I-21" value="is_used" style="ellipse;whiteSpace=wrap;html=1;align=center;" parent="1" vertex="1">
          <mxGeometry x="750" y="160" width="100" height="40" as="geometry" />
        </mxCell>
        <mxCell id="8_MltZdfGdoI-M6Byp3I-22" value="&lt;span style=&quot;border-bottom: 1px dotted&quot;&gt;category_id&lt;/span&gt;" style="ellipse;whiteSpace=wrap;html=1;align=center;" parent="1" vertex="1">
          <mxGeometry x="730" y="210" width="100" height="40" as="geometry" />
        </mxCell>
        <mxCell id="8_MltZdfGdoI-M6Byp3I-23" value="" style="endArrow=none;html=1;rounded=0;exitX=1;exitY=0.5;exitDx=0;exitDy=0;entryX=0.25;entryY=0;entryDx=0;entryDy=0;" parent="1" source="8_MltZdfGdoI-M6Byp3I-18" target="8_MltZdfGdoI-M6Byp3I-15" edge="1">
          <mxGeometry relative="1" as="geometry">
            <mxPoint x="550" y="220" as="sourcePoint" />
            <mxPoint x="710" y="220" as="targetPoint" />
          </mxGeometry>
        </mxCell>
        <mxCell id="8_MltZdfGdoI-M6Byp3I-24" value="" style="endArrow=none;html=1;rounded=0;exitX=1;exitY=1;exitDx=0;exitDy=0;entryX=0.5;entryY=0;entryDx=0;entryDy=0;" parent="1" source="8_MltZdfGdoI-M6Byp3I-19" target="8_MltZdfGdoI-M6Byp3I-15" edge="1">
          <mxGeometry relative="1" as="geometry">
            <mxPoint x="550" y="220" as="sourcePoint" />
            <mxPoint x="710" y="220" as="targetPoint" />
          </mxGeometry>
        </mxCell>
        <mxCell id="8_MltZdfGdoI-M6Byp3I-25" value="" style="endArrow=none;html=1;rounded=0;exitX=0;exitY=1;exitDx=0;exitDy=0;" parent="1" source="8_MltZdfGdoI-M6Byp3I-20" edge="1">
          <mxGeometry relative="1" as="geometry">
            <mxPoint x="550" y="220" as="sourcePoint" />
            <mxPoint x="630" y="260" as="targetPoint" />
          </mxGeometry>
        </mxCell>
        <mxCell id="8_MltZdfGdoI-M6Byp3I-26" value="" style="endArrow=none;html=1;rounded=0;exitX=0;exitY=0.5;exitDx=0;exitDy=0;entryX=0.75;entryY=0;entryDx=0;entryDy=0;" parent="1" source="8_MltZdfGdoI-M6Byp3I-21" target="8_MltZdfGdoI-M6Byp3I-15" edge="1">
          <mxGeometry relative="1" as="geometry">
            <mxPoint x="550" y="220" as="sourcePoint" />
            <mxPoint x="710" y="220" as="targetPoint" />
          </mxGeometry>
        </mxCell>
        <mxCell id="8_MltZdfGdoI-M6Byp3I-27" value="" style="endArrow=none;html=1;rounded=0;exitX=0;exitY=0.5;exitDx=0;exitDy=0;entryX=1;entryY=0;entryDx=0;entryDy=0;" parent="1" source="8_MltZdfGdoI-M6Byp3I-22" target="8_MltZdfGdoI-M6Byp3I-15" edge="1">
          <mxGeometry relative="1" as="geometry">
            <mxPoint x="550" y="220" as="sourcePoint" />
            <mxPoint x="710" y="220" as="targetPoint" />
          </mxGeometry>
        </mxCell>
        <mxCell id="8_MltZdfGdoI-M6Byp3I-28" value="1" style="text;strokeColor=none;fillColor=none;spacingLeft=4;spacingRight=4;overflow=hidden;rotatable=0;points=[[0,0.5],[1,0.5]];portConstraint=eastwest;fontSize=12;whiteSpace=wrap;html=1;" parent="1" vertex="1">
          <mxGeometry x="550" y="255" width="40" height="30" as="geometry" />
        </mxCell>
        <mxCell id="8_MltZdfGdoI-M6Byp3I-29" value="N" style="text;strokeColor=none;fillColor=none;spacingLeft=4;spacingRight=4;overflow=hidden;rotatable=0;points=[[0,0.5],[1,0.5]];portConstraint=eastwest;fontSize=12;whiteSpace=wrap;html=1;" parent="1" vertex="1">
          <mxGeometry x="300" y="250" width="40" height="30" as="geometry" />
        </mxCell>
        <mxCell id="8_MltZdfGdoI-M6Byp3I-30" value="" style="endArrow=none;html=1;rounded=0;exitX=1;exitY=0.5;exitDx=0;exitDy=0;" parent="1" source="8_MltZdfGdoI-M6Byp3I-15" edge="1">
          <mxGeometry relative="1" as="geometry">
            <mxPoint x="790" y="220" as="sourcePoint" />
            <mxPoint x="840" y="280" as="targetPoint" />
          </mxGeometry>
        </mxCell>
        <mxCell id="8_MltZdfGdoI-M6Byp3I-31" value="Belongs to" style="shape=rhombus;perimeter=rhombusPerimeter;whiteSpace=wrap;html=1;align=center;" parent="1" vertex="1">
          <mxGeometry x="830" y="250" width="120" height="60" as="geometry" />
        </mxCell>
        <mxCell id="8_MltZdfGdoI-M6Byp3I-32" value="Category" style="whiteSpace=wrap;html=1;align=center;" parent="1" vertex="1">
          <mxGeometry x="1120" y="260" width="100" height="40" as="geometry" />
        </mxCell>
        <mxCell id="8_MltZdfGdoI-M6Byp3I-33" value="1" style="text;strokeColor=none;fillColor=none;spacingLeft=4;spacingRight=4;overflow=hidden;rotatable=0;points=[[0,0.5],[1,0.5]];portConstraint=eastwest;fontSize=12;whiteSpace=wrap;html=1;" parent="1" vertex="1">
          <mxGeometry x="1100" y="280" width="40" height="30" as="geometry" />
        </mxCell>
        <mxCell id="8_MltZdfGdoI-M6Byp3I-34" value="N" style="text;strokeColor=none;fillColor=none;spacingLeft=4;spacingRight=4;overflow=hidden;rotatable=0;points=[[0,0.5],[1,0.5]];portConstraint=eastwest;fontSize=12;whiteSpace=wrap;html=1;" parent="1" vertex="1">
          <mxGeometry x="670" y="255" width="40" height="30" as="geometry" />
        </mxCell>
        <mxCell id="8_MltZdfGdoI-M6Byp3I-35" value="" style="endArrow=none;html=1;rounded=0;exitX=1;exitY=0.5;exitDx=0;exitDy=0;" parent="1" edge="1">
          <mxGeometry relative="1" as="geometry">
            <mxPoint x="950" y="279.43" as="sourcePoint" />
            <mxPoint x="1120" y="279.43" as="targetPoint" />
          </mxGeometry>
        </mxCell>
        <mxCell id="8_MltZdfGdoI-M6Byp3I-36" value="ID" style="ellipse;whiteSpace=wrap;html=1;align=center;fontStyle=4;" parent="1" vertex="1">
          <mxGeometry x="1010" y="180" width="100" height="40" as="geometry" />
        </mxCell>
        <mxCell id="8_MltZdfGdoI-M6Byp3I-37" value="name" style="ellipse;whiteSpace=wrap;html=1;align=center;" parent="1" vertex="1">
          <mxGeometry x="1110" y="160" width="100" height="40" as="geometry" />
        </mxCell>
        <mxCell id="8_MltZdfGdoI-M6Byp3I-38" value="" style="endArrow=none;html=1;rounded=0;exitX=0.75;exitY=0;exitDx=0;exitDy=0;entryX=0.5;entryY=1;entryDx=0;entryDy=0;" parent="1" source="8_MltZdfGdoI-M6Byp3I-32" target="8_MltZdfGdoI-M6Byp3I-37" edge="1">
          <mxGeometry relative="1" as="geometry">
            <mxPoint x="1030" y="240" as="sourcePoint" />
            <mxPoint x="1190" y="240" as="targetPoint" />
          </mxGeometry>
        </mxCell>
        <mxCell id="8_MltZdfGdoI-M6Byp3I-39" value="" style="endArrow=none;html=1;rounded=0;exitX=1;exitY=1;exitDx=0;exitDy=0;entryX=0.25;entryY=0;entryDx=0;entryDy=0;" parent="1" source="8_MltZdfGdoI-M6Byp3I-36" target="8_MltZdfGdoI-M6Byp3I-32" edge="1">
          <mxGeometry relative="1" as="geometry">
            <mxPoint x="1030" y="240" as="sourcePoint" />
            <mxPoint x="1190" y="240" as="targetPoint" />
          </mxGeometry>
        </mxCell>
        <mxCell id="8_MltZdfGdoI-M6Byp3I-40" value="Language_popularity" style="whiteSpace=wrap;html=1;align=center;" parent="1" vertex="1">
          <mxGeometry x="1105" y="520" width="130" height="40" as="geometry" />
        </mxCell>
        <mxCell id="8_MltZdfGdoI-M6Byp3I-42" value="ID" style="ellipse;whiteSpace=wrap;html=1;align=center;fontStyle=4;" parent="1" vertex="1">
          <mxGeometry x="1210" y="630" width="100" height="40" as="geometry" />
        </mxCell>
        <mxCell id="8_MltZdfGdoI-M6Byp3I-43" value="" style="endArrow=none;html=1;rounded=0;exitX=0.75;exitY=1;exitDx=0;exitDy=0;entryX=0.5;entryY=0;entryDx=0;entryDy=0;" parent="1" source="8_MltZdfGdoI-M6Byp3I-40" target="8_MltZdfGdoI-M6Byp3I-42" edge="1">
          <mxGeometry relative="1" as="geometry">
            <mxPoint x="1050" y="620" as="sourcePoint" />
            <mxPoint x="1210" y="620" as="targetPoint" />
          </mxGeometry>
        </mxCell>
        <mxCell id="8_MltZdfGdoI-M6Byp3I-44" value="&lt;span style=&quot;border-bottom: 1px dotted&quot;&gt;user_id&lt;/span&gt;" style="ellipse;whiteSpace=wrap;html=1;align=center;" parent="1" vertex="1">
          <mxGeometry x="1100" y="630" width="100" height="40" as="geometry" />
        </mxCell>
        <mxCell id="8_MltZdfGdoI-M6Byp3I-45" value="&lt;span style=&quot;border-bottom: 1px dotted&quot;&gt;category_id&lt;/span&gt;" style="ellipse;whiteSpace=wrap;html=1;align=center;" parent="1" vertex="1">
          <mxGeometry x="990" y="630" width="100" height="40" as="geometry" />
        </mxCell>
        <mxCell id="8_MltZdfGdoI-M6Byp3I-46" value="value" style="ellipse;whiteSpace=wrap;html=1;align=center;" parent="1" vertex="1">
          <mxGeometry x="1320" y="630" width="100" height="40" as="geometry" />
        </mxCell>
        <mxCell id="8_MltZdfGdoI-M6Byp3I-47" value="" style="endArrow=none;html=1;rounded=0;exitX=0.5;exitY=1;exitDx=0;exitDy=0;entryX=0.5;entryY=0;entryDx=0;entryDy=0;" parent="1" source="8_MltZdfGdoI-M6Byp3I-40" target="8_MltZdfGdoI-M6Byp3I-44" edge="1">
          <mxGeometry relative="1" as="geometry">
            <mxPoint x="1070" y="590" as="sourcePoint" />
            <mxPoint x="1230" y="590" as="targetPoint" />
          </mxGeometry>
        </mxCell>
        <mxCell id="8_MltZdfGdoI-M6Byp3I-48" value="" style="endArrow=none;html=1;rounded=0;exitX=0.25;exitY=1;exitDx=0;exitDy=0;entryX=0.5;entryY=0;entryDx=0;entryDy=0;" parent="1" source="8_MltZdfGdoI-M6Byp3I-40" target="8_MltZdfGdoI-M6Byp3I-45" edge="1">
          <mxGeometry relative="1" as="geometry">
            <mxPoint x="1070" y="590" as="sourcePoint" />
            <mxPoint x="1230" y="590" as="targetPoint" />
          </mxGeometry>
        </mxCell>
        <mxCell id="8_MltZdfGdoI-M6Byp3I-49" value="" style="endArrow=none;html=1;rounded=0;exitX=1;exitY=1;exitDx=0;exitDy=0;entryX=0;entryY=0;entryDx=0;entryDy=0;" parent="1" source="8_MltZdfGdoI-M6Byp3I-40" target="8_MltZdfGdoI-M6Byp3I-46" edge="1">
          <mxGeometry relative="1" as="geometry">
            <mxPoint x="1110" y="590" as="sourcePoint" />
            <mxPoint x="1270" y="590" as="targetPoint" />
          </mxGeometry>
        </mxCell>
        <mxCell id="8_MltZdfGdoI-M6Byp3I-50" value="Has" style="shape=rhombus;perimeter=rhombusPerimeter;whiteSpace=wrap;html=1;align=center;" parent="1" vertex="1">
          <mxGeometry x="1110" y="380" width="120" height="60" as="geometry" />
        </mxCell>
        <mxCell id="8_MltZdfGdoI-M6Byp3I-51" value="" style="endArrow=none;html=1;rounded=0;exitX=0.5;exitY=1;exitDx=0;exitDy=0;entryX=0.5;entryY=0;entryDx=0;entryDy=0;" parent="1" source="8_MltZdfGdoI-M6Byp3I-32" target="8_MltZdfGdoI-M6Byp3I-50" edge="1">
          <mxGeometry relative="1" as="geometry">
            <mxPoint x="1100" y="440" as="sourcePoint" />
            <mxPoint x="1260" y="440" as="targetPoint" />
          </mxGeometry>
        </mxCell>
        <mxCell id="8_MltZdfGdoI-M6Byp3I-52" value="" style="endArrow=none;html=1;rounded=0;entryX=0.5;entryY=0;entryDx=0;entryDy=0;" parent="1" target="8_MltZdfGdoI-M6Byp3I-40" edge="1">
          <mxGeometry relative="1" as="geometry">
            <mxPoint x="1170" y="440" as="sourcePoint" />
            <mxPoint x="1260" y="440" as="targetPoint" />
          </mxGeometry>
        </mxCell>
        <mxCell id="8_MltZdfGdoI-M6Byp3I-53" value="1" style="text;strokeColor=none;fillColor=none;spacingLeft=4;spacingRight=4;overflow=hidden;rotatable=0;points=[[0,0.5],[1,0.5]];portConstraint=eastwest;fontSize=12;whiteSpace=wrap;html=1;" parent="1" vertex="1">
          <mxGeometry x="1150" y="300" width="40" height="30" as="geometry" />
        </mxCell>
        <mxCell id="8_MltZdfGdoI-M6Byp3I-54" value="N" style="text;strokeColor=none;fillColor=none;spacingLeft=4;spacingRight=4;overflow=hidden;rotatable=0;points=[[0,0.5],[1,0.5]];portConstraint=eastwest;fontSize=12;whiteSpace=wrap;html=1;" parent="1" vertex="1">
          <mxGeometry x="1150" y="490" width="40" height="30" as="geometry" />
        </mxCell>
        <mxCell id="8_MltZdfGdoI-M6Byp3I-56" value="User" style="whiteSpace=wrap;html=1;align=center;" parent="1" vertex="1">
          <mxGeometry x="530" y="520" width="100" height="40" as="geometry" />
        </mxCell>
        <mxCell id="8_MltZdfGdoI-M6Byp3I-57" value="Has" style="shape=rhombus;perimeter=rhombusPerimeter;whiteSpace=wrap;html=1;align=center;" parent="1" vertex="1">
          <mxGeometry x="810" y="510" width="120" height="60" as="geometry" />
        </mxCell>
        <mxCell id="8_MltZdfGdoI-M6Byp3I-58" value="" style="endArrow=none;html=1;rounded=0;exitX=1;exitY=0.5;exitDx=0;exitDy=0;entryX=0;entryY=0.5;entryDx=0;entryDy=0;" parent="1" source="8_MltZdfGdoI-M6Byp3I-57" target="8_MltZdfGdoI-M6Byp3I-40" edge="1">
          <mxGeometry relative="1" as="geometry">
            <mxPoint x="810" y="520" as="sourcePoint" />
            <mxPoint x="970" y="520" as="targetPoint" />
          </mxGeometry>
        </mxCell>
        <mxCell id="8_MltZdfGdoI-M6Byp3I-59" value="" style="endArrow=none;html=1;rounded=0;exitX=1;exitY=0.5;exitDx=0;exitDy=0;entryX=0;entryY=0.5;entryDx=0;entryDy=0;" parent="1" source="8_MltZdfGdoI-M6Byp3I-56" edge="1">
          <mxGeometry relative="1" as="geometry">
            <mxPoint x="635" y="539.8" as="sourcePoint" />
            <mxPoint x="810" y="539.8" as="targetPoint" />
          </mxGeometry>
        </mxCell>
        <mxCell id="8_MltZdfGdoI-M6Byp3I-60" value="N" style="text;strokeColor=none;fillColor=none;spacingLeft=4;spacingRight=4;overflow=hidden;rotatable=0;points=[[0,0.5],[1,0.5]];portConstraint=eastwest;fontSize=12;whiteSpace=wrap;html=1;" parent="1" vertex="1">
          <mxGeometry x="1080" y="520" width="40" height="30" as="geometry" />
        </mxCell>
        <mxCell id="8_MltZdfGdoI-M6Byp3I-61" value="1" style="text;strokeColor=none;fillColor=none;spacingLeft=4;spacingRight=4;overflow=hidden;rotatable=0;points=[[0,0.5],[1,0.5]];portConstraint=eastwest;fontSize=12;whiteSpace=wrap;html=1;" parent="1" vertex="1">
          <mxGeometry x="630" y="520" width="40" height="30" as="geometry" />
        </mxCell>
        <mxCell id="8_MltZdfGdoI-M6Byp3I-62" value="ID" style="ellipse;whiteSpace=wrap;html=1;align=center;fontStyle=4;" parent="1" vertex="1">
          <mxGeometry x="670" y="610" width="100" height="40" as="geometry" />
        </mxCell>
        <mxCell id="8_MltZdfGdoI-M6Byp3I-63" value="username" style="ellipse;whiteSpace=wrap;html=1;align=center;" parent="1" vertex="1">
          <mxGeometry x="570" y="650" width="100" height="40" as="geometry" />
        </mxCell>
        <mxCell id="8_MltZdfGdoI-M6Byp3I-64" value="email" style="ellipse;whiteSpace=wrap;html=1;align=center;" parent="1" vertex="1">
          <mxGeometry x="450" y="650" width="100" height="40" as="geometry" />
        </mxCell>
        <mxCell id="8_MltZdfGdoI-M6Byp3I-65" value="password" style="ellipse;whiteSpace=wrap;html=1;align=center;" parent="1" vertex="1">
          <mxGeometry x="350" y="630" width="100" height="40" as="geometry" />
        </mxCell>
        <mxCell id="8_MltZdfGdoI-M6Byp3I-66" value="bio" style="ellipse;whiteSpace=wrap;html=1;align=center;" parent="1" vertex="1">
          <mxGeometry x="290" y="580" width="100" height="40" as="geometry" />
        </mxCell>
        <mxCell id="8_MltZdfGdoI-M6Byp3I-67" value="quiz_correct" style="ellipse;whiteSpace=wrap;html=1;align=center;" parent="1" vertex="1">
          <mxGeometry x="690" y="380" width="100" height="40" as="geometry" />
        </mxCell>
        <mxCell id="8_MltZdfGdoI-M6Byp3I-68" value="quiz_absolved" style="ellipse;whiteSpace=wrap;html=1;align=center;" parent="1" vertex="1">
          <mxGeometry x="690" y="330" width="100" height="40" as="geometry" />
        </mxCell>
        <mxCell id="8_MltZdfGdoI-M6Byp3I-69" value="Statistics" style="whiteSpace=wrap;html=1;align=center;" parent="1" vertex="1">
          <mxGeometry x="530" y="360" width="100" height="40" as="geometry" />
        </mxCell>
        <mxCell id="8_MltZdfGdoI-M6Byp3I-70" value="ID" style="ellipse;whiteSpace=wrap;html=1;align=center;fontStyle=4;" parent="1" vertex="1">
          <mxGeometry x="690" y="430" width="100" height="40" as="geometry" />
        </mxCell>
        <mxCell id="8_MltZdfGdoI-M6Byp3I-71" value="&lt;span style=&quot;border-bottom: 1px dotted&quot;&gt;user_id&lt;/span&gt;" style="ellipse;whiteSpace=wrap;html=1;align=center;" parent="1" vertex="1">
          <mxGeometry x="370" y="360" width="100" height="40" as="geometry" />
        </mxCell>
        <mxCell id="8_MltZdfGdoI-M6Byp3I-72" value="" style="endArrow=none;html=1;rounded=0;exitX=1;exitY=0.5;exitDx=0;exitDy=0;entryX=0;entryY=0.5;entryDx=0;entryDy=0;" parent="1" source="8_MltZdfGdoI-M6Byp3I-71" target="8_MltZdfGdoI-M6Byp3I-69" edge="1">
          <mxGeometry relative="1" as="geometry">
            <mxPoint x="480" y="450" as="sourcePoint" />
            <mxPoint x="640" y="450" as="targetPoint" />
          </mxGeometry>
        </mxCell>
        <mxCell id="8_MltZdfGdoI-M6Byp3I-73" value="" style="endArrow=none;html=1;rounded=0;exitX=0;exitY=0.5;exitDx=0;exitDy=0;entryX=1;entryY=0;entryDx=0;entryDy=0;" parent="1" source="8_MltZdfGdoI-M6Byp3I-68" target="8_MltZdfGdoI-M6Byp3I-69" edge="1">
          <mxGeometry relative="1" as="geometry">
            <mxPoint x="480" y="450" as="sourcePoint" />
            <mxPoint x="640" y="450" as="targetPoint" />
          </mxGeometry>
        </mxCell>
        <mxCell id="8_MltZdfGdoI-M6Byp3I-74" value="" style="endArrow=none;html=1;rounded=0;exitX=0.996;exitY=0.43;exitDx=0;exitDy=0;exitPerimeter=0;entryX=0;entryY=0.5;entryDx=0;entryDy=0;" parent="1" source="8_MltZdfGdoI-M6Byp3I-69" target="8_MltZdfGdoI-M6Byp3I-67" edge="1">
          <mxGeometry relative="1" as="geometry">
            <mxPoint x="480" y="450" as="sourcePoint" />
            <mxPoint x="640" y="450" as="targetPoint" />
          </mxGeometry>
        </mxCell>
        <mxCell id="8_MltZdfGdoI-M6Byp3I-75" value="" style="endArrow=none;html=1;rounded=0;exitX=1;exitY=0.75;exitDx=0;exitDy=0;entryX=0;entryY=0;entryDx=0;entryDy=0;" parent="1" source="8_MltZdfGdoI-M6Byp3I-69" target="8_MltZdfGdoI-M6Byp3I-70" edge="1">
          <mxGeometry relative="1" as="geometry">
            <mxPoint x="480" y="450" as="sourcePoint" />
            <mxPoint x="640" y="450" as="targetPoint" />
          </mxGeometry>
        </mxCell>
        <mxCell id="8_MltZdfGdoI-M6Byp3I-76" value="Achieves" style="shape=rhombus;perimeter=rhombusPerimeter;whiteSpace=wrap;html=1;align=center;" parent="1" vertex="1">
          <mxGeometry x="520" y="430" width="120" height="60" as="geometry" />
        </mxCell>
        <mxCell id="8_MltZdfGdoI-M6Byp3I-77" value="" style="endArrow=none;html=1;rounded=0;exitX=0.5;exitY=1;exitDx=0;exitDy=0;entryX=0.5;entryY=0;entryDx=0;entryDy=0;" parent="1" source="8_MltZdfGdoI-M6Byp3I-69" target="8_MltZdfGdoI-M6Byp3I-76" edge="1">
          <mxGeometry relative="1" as="geometry">
            <mxPoint x="520" y="420" as="sourcePoint" />
            <mxPoint x="680" y="420" as="targetPoint" />
          </mxGeometry>
        </mxCell>
        <mxCell id="8_MltZdfGdoI-M6Byp3I-78" value="" style="endArrow=none;html=1;rounded=0;exitX=0.5;exitY=1;exitDx=0;exitDy=0;entryX=0.5;entryY=0;entryDx=0;entryDy=0;" parent="1" source="8_MltZdfGdoI-M6Byp3I-76" target="8_MltZdfGdoI-M6Byp3I-56" edge="1">
          <mxGeometry relative="1" as="geometry">
            <mxPoint x="520" y="420" as="sourcePoint" />
            <mxPoint x="680" y="420" as="targetPoint" />
          </mxGeometry>
        </mxCell>
        <mxCell id="8_MltZdfGdoI-M6Byp3I-79" value="1" style="text;strokeColor=none;fillColor=none;spacingLeft=4;spacingRight=4;overflow=hidden;rotatable=0;points=[[0,0.5],[1,0.5]];portConstraint=eastwest;fontSize=12;whiteSpace=wrap;html=1;" parent="1" vertex="1">
          <mxGeometry x="560" y="400" width="40" height="30" as="geometry" />
        </mxCell>
        <mxCell id="8_MltZdfGdoI-M6Byp3I-80" value="1" style="text;strokeColor=none;fillColor=none;spacingLeft=4;spacingRight=4;overflow=hidden;rotatable=0;points=[[0,0.5],[1,0.5]];portConstraint=eastwest;fontSize=12;whiteSpace=wrap;html=1;" parent="1" vertex="1">
          <mxGeometry x="560" y="500" width="40" height="30" as="geometry" />
        </mxCell>
        <mxCell id="8_MltZdfGdoI-M6Byp3I-81" value="is_admin" style="ellipse;whiteSpace=wrap;html=1;align=center;" parent="1" vertex="1">
          <mxGeometry x="280" y="530" width="100" height="40" as="geometry" />
        </mxCell>
        <mxCell id="8_MltZdfGdoI-M6Byp3I-82" value="is_active" style="ellipse;whiteSpace=wrap;html=1;align=center;" parent="1" vertex="1">
          <mxGeometry x="270" y="480" width="100" height="40" as="geometry" />
        </mxCell>
        <mxCell id="8_MltZdfGdoI-M6Byp3I-83" value="" style="endArrow=none;html=1;rounded=0;exitX=1;exitY=0.5;exitDx=0;exitDy=0;entryX=0;entryY=0;entryDx=0;entryDy=0;" parent="1" source="8_MltZdfGdoI-M6Byp3I-82" target="8_MltZdfGdoI-M6Byp3I-56" edge="1">
          <mxGeometry relative="1" as="geometry">
            <mxPoint x="460" y="540" as="sourcePoint" />
            <mxPoint x="620" y="540" as="targetPoint" />
          </mxGeometry>
        </mxCell>
        <mxCell id="8_MltZdfGdoI-M6Byp3I-84" value="" style="endArrow=none;html=1;rounded=0;exitX=1;exitY=0.5;exitDx=0;exitDy=0;entryX=0;entryY=0.25;entryDx=0;entryDy=0;" parent="1" source="8_MltZdfGdoI-M6Byp3I-81" target="8_MltZdfGdoI-M6Byp3I-56" edge="1">
          <mxGeometry relative="1" as="geometry">
            <mxPoint x="460" y="540" as="sourcePoint" />
            <mxPoint x="620" y="540" as="targetPoint" />
          </mxGeometry>
        </mxCell>
        <mxCell id="8_MltZdfGdoI-M6Byp3I-85" value="" style="endArrow=none;html=1;rounded=0;exitX=1;exitY=0.5;exitDx=0;exitDy=0;entryX=0;entryY=0.5;entryDx=0;entryDy=0;" parent="1" source="8_MltZdfGdoI-M6Byp3I-66" target="8_MltZdfGdoI-M6Byp3I-56" edge="1">
          <mxGeometry relative="1" as="geometry">
            <mxPoint x="460" y="540" as="sourcePoint" />
            <mxPoint x="620" y="540" as="targetPoint" />
          </mxGeometry>
        </mxCell>
        <mxCell id="8_MltZdfGdoI-M6Byp3I-86" value="" style="endArrow=none;html=1;rounded=0;exitX=1;exitY=0;exitDx=0;exitDy=0;entryX=0;entryY=1;entryDx=0;entryDy=0;" parent="1" source="8_MltZdfGdoI-M6Byp3I-65" target="8_MltZdfGdoI-M6Byp3I-56" edge="1">
          <mxGeometry relative="1" as="geometry">
            <mxPoint x="460" y="540" as="sourcePoint" />
            <mxPoint x="620" y="540" as="targetPoint" />
          </mxGeometry>
        </mxCell>
        <mxCell id="8_MltZdfGdoI-M6Byp3I-87" value="" style="endArrow=none;html=1;rounded=0;exitX=0.5;exitY=0;exitDx=0;exitDy=0;entryX=0.25;entryY=1;entryDx=0;entryDy=0;" parent="1" source="8_MltZdfGdoI-M6Byp3I-64" target="8_MltZdfGdoI-M6Byp3I-56" edge="1">
          <mxGeometry relative="1" as="geometry">
            <mxPoint x="460" y="540" as="sourcePoint" />
            <mxPoint x="620" y="540" as="targetPoint" />
          </mxGeometry>
        </mxCell>
        <mxCell id="8_MltZdfGdoI-M6Byp3I-88" value="" style="endArrow=none;html=1;rounded=0;exitX=0.5;exitY=0;exitDx=0;exitDy=0;entryX=0.5;entryY=1;entryDx=0;entryDy=0;" parent="1" source="8_MltZdfGdoI-M6Byp3I-63" target="8_MltZdfGdoI-M6Byp3I-56" edge="1">
          <mxGeometry relative="1" as="geometry">
            <mxPoint x="460" y="540" as="sourcePoint" />
            <mxPoint x="620" y="540" as="targetPoint" />
          </mxGeometry>
        </mxCell>
        <mxCell id="8_MltZdfGdoI-M6Byp3I-89" value="" style="endArrow=none;html=1;rounded=0;exitX=0;exitY=0;exitDx=0;exitDy=0;entryX=1;entryY=1;entryDx=0;entryDy=0;" parent="1" source="8_MltZdfGdoI-M6Byp3I-62" target="8_MltZdfGdoI-M6Byp3I-56" edge="1">
          <mxGeometry relative="1" as="geometry">
            <mxPoint x="460" y="540" as="sourcePoint" />
            <mxPoint x="620" y="540" as="targetPoint" />
          </mxGeometry>
        </mxCell>
        <mxCell id="X0qwM8O_w4ARA05M2sBW-1" value="Task" style="whiteSpace=wrap;html=1;align=center;" vertex="1" parent="1">
          <mxGeometry x="-220" y="450" width="100" height="40" as="geometry" />
        </mxCell>
        <mxCell id="X0qwM8O_w4ARA05M2sBW-2" value="" style="endArrow=none;html=1;rounded=0;exitX=0.75;exitY=0;exitDx=0;exitDy=0;" edge="1" parent="1" source="X0qwM8O_w4ARA05M2sBW-1" target="X0qwM8O_w4ARA05M2sBW-3">
          <mxGeometry relative="1" as="geometry">
            <mxPoint x="160" y="480" as="sourcePoint" />
            <mxPoint x="-100" y="400" as="targetPoint" />
          </mxGeometry>
        </mxCell>
        <mxCell id="X0qwM8O_w4ARA05M2sBW-3" value="ID" style="ellipse;whiteSpace=wrap;html=1;align=center;fontStyle=4;" vertex="1" parent="1">
          <mxGeometry x="-150" y="380" width="100" height="40" as="geometry" />
        </mxCell>
        <mxCell id="X0qwM8O_w4ARA05M2sBW-4" value="" style="endArrow=none;html=1;rounded=0;exitX=0.5;exitY=0;exitDx=0;exitDy=0;" edge="1" parent="1" source="X0qwM8O_w4ARA05M2sBW-1" target="X0qwM8O_w4ARA05M2sBW-5">
          <mxGeometry relative="1" as="geometry">
            <mxPoint x="30" y="470" as="sourcePoint" />
            <mxPoint x="-400" y="420" as="targetPoint" />
          </mxGeometry>
        </mxCell>
        <mxCell id="X0qwM8O_w4ARA05M2sBW-5" value="Title" style="ellipse;whiteSpace=wrap;html=1;align=center;" vertex="1" parent="1">
          <mxGeometry x="-270.0000000000002" y="389.9999999999999" width="100" height="40" as="geometry" />
        </mxCell>
        <mxCell id="X0qwM8O_w4ARA05M2sBW-6" value="" style="endArrow=none;html=1;rounded=0;exitX=0;exitY=0;exitDx=0;exitDy=0;" edge="1" parent="1" source="X0qwM8O_w4ARA05M2sBW-1" target="X0qwM8O_w4ARA05M2sBW-7">
          <mxGeometry relative="1" as="geometry">
            <mxPoint x="-30" y="470" as="sourcePoint" />
            <mxPoint x="-320" y="430" as="targetPoint" />
          </mxGeometry>
        </mxCell>
        <mxCell id="X0qwM8O_w4ARA05M2sBW-7" value="Description" style="ellipse;whiteSpace=wrap;html=1;align=center;" vertex="1" parent="1">
          <mxGeometry x="-390.0000000000002" y="419.9999999999999" width="100" height="40" as="geometry" />
        </mxCell>
        <mxCell id="X0qwM8O_w4ARA05M2sBW-8" value="" style="endArrow=none;html=1;rounded=0;exitX=0;exitY=0.25;exitDx=0;exitDy=0;" edge="1" parent="1" source="X0qwM8O_w4ARA05M2sBW-1" target="X0qwM8O_w4ARA05M2sBW-9">
          <mxGeometry relative="1" as="geometry">
            <mxPoint x="-30" y="470" as="sourcePoint" />
            <mxPoint x="-350" y="510" as="targetPoint" />
          </mxGeometry>
        </mxCell>
        <mxCell id="X0qwM8O_w4ARA05M2sBW-9" value="Output" style="ellipse;whiteSpace=wrap;html=1;align=center;" vertex="1" parent="1">
          <mxGeometry x="-400.0000000000002" y="480" width="100" height="40" as="geometry" />
        </mxCell>
        <mxCell id="X0qwM8O_w4ARA05M2sBW-10" value="" style="endArrow=none;html=1;rounded=0;exitX=0;exitY=0.5;exitDx=0;exitDy=0;entryX=0.5;entryY=0;entryDx=0;entryDy=0;" edge="1" parent="1" source="X0qwM8O_w4ARA05M2sBW-1" target="X0qwM8O_w4ARA05M2sBW-12">
          <mxGeometry relative="1" as="geometry">
            <mxPoint x="-30" y="470" as="sourcePoint" />
            <mxPoint x="-267.0706243566335" y="540.6802432915213" as="targetPoint" />
          </mxGeometry>
        </mxCell>
        <mxCell id="X0qwM8O_w4ARA05M2sBW-12" value="&lt;span style=&quot;border-bottom: 1px dotted&quot;&gt;Category_id&lt;/span&gt;" style="ellipse;whiteSpace=wrap;html=1;align=center;" vertex="1" parent="1">
          <mxGeometry x="-350" y="530" width="100" height="40" as="geometry" />
        </mxCell>
        <mxCell id="X0qwM8O_w4ARA05M2sBW-13" value="" style="endArrow=none;html=1;rounded=0;exitX=0.25;exitY=1;exitDx=0;exitDy=0;" edge="1" parent="1" source="X0qwM8O_w4ARA05M2sBW-1" target="X0qwM8O_w4ARA05M2sBW-14">
          <mxGeometry relative="1" as="geometry">
            <mxPoint x="-30" y="470" as="sourcePoint" />
            <mxPoint x="-240" y="600" as="targetPoint" />
          </mxGeometry>
        </mxCell>
        <mxCell id="X0qwM8O_w4ARA05M2sBW-14" value="&lt;span style=&quot;border-bottom: 1px dotted&quot;&gt;Difficulty_id&lt;/span&gt;" style="ellipse;whiteSpace=wrap;html=1;align=center;" vertex="1" parent="1">
          <mxGeometry x="-290.0000000000002" y="580" width="100" height="40" as="geometry" />
        </mxCell>
        <mxCell id="X0qwM8O_w4ARA05M2sBW-15" value="" style="endArrow=none;html=1;rounded=0;exitX=0.5;exitY=1;exitDx=0;exitDy=0;" edge="1" parent="1" source="X0qwM8O_w4ARA05M2sBW-1">
          <mxGeometry relative="1" as="geometry">
            <mxPoint x="-30" y="470" as="sourcePoint" />
            <mxPoint x="-170" y="670" as="targetPoint" />
          </mxGeometry>
        </mxCell>
        <mxCell id="X0qwM8O_w4ARA05M2sBW-16" value="Belongs to" style="shape=rhombus;perimeter=rhombusPerimeter;whiteSpace=wrap;html=1;align=center;" vertex="1" parent="1">
          <mxGeometry x="-230" y="670" width="120" height="60" as="geometry" />
        </mxCell>
        <mxCell id="X0qwM8O_w4ARA05M2sBW-17" value="" style="endArrow=none;html=1;rounded=0;exitX=0.5;exitY=1;exitDx=0;exitDy=0;" edge="1" parent="1" source="X0qwM8O_w4ARA05M2sBW-16">
          <mxGeometry relative="1" as="geometry">
            <mxPoint x="-30" y="610" as="sourcePoint" />
            <mxPoint x="-170" y="780" as="targetPoint" />
          </mxGeometry>
        </mxCell>
        <mxCell id="X0qwM8O_w4ARA05M2sBW-18" value="Difficulty" style="whiteSpace=wrap;html=1;align=center;" vertex="1" parent="1">
          <mxGeometry x="-220" y="780" width="100" height="40" as="geometry" />
        </mxCell>
        <mxCell id="X0qwM8O_w4ARA05M2sBW-19" value="" style="endArrow=none;html=1;rounded=0;exitX=0;exitY=0.25;exitDx=0;exitDy=0;" edge="1" parent="1" source="X0qwM8O_w4ARA05M2sBW-18" target="X0qwM8O_w4ARA05M2sBW-20">
          <mxGeometry relative="1" as="geometry">
            <mxPoint x="-220" y="730" as="sourcePoint" />
            <mxPoint x="-270" y="770" as="targetPoint" />
          </mxGeometry>
        </mxCell>
        <mxCell id="X0qwM8O_w4ARA05M2sBW-20" value="ID" style="ellipse;whiteSpace=wrap;html=1;align=center;fontStyle=4;" vertex="1" parent="1">
          <mxGeometry x="-360.0000000000002" y="750" width="100" height="40" as="geometry" />
        </mxCell>
        <mxCell id="X0qwM8O_w4ARA05M2sBW-21" value="" style="endArrow=none;html=1;rounded=0;exitX=0;exitY=0.75;exitDx=0;exitDy=0;" edge="1" parent="1" source="X0qwM8O_w4ARA05M2sBW-18" target="X0qwM8O_w4ARA05M2sBW-22">
          <mxGeometry relative="1" as="geometry">
            <mxPoint x="-220" y="730" as="sourcePoint" />
            <mxPoint x="-300" y="850" as="targetPoint" />
          </mxGeometry>
        </mxCell>
        <mxCell id="X0qwM8O_w4ARA05M2sBW-22" value="Value" style="ellipse;whiteSpace=wrap;html=1;align=center;" vertex="1" parent="1">
          <mxGeometry x="-370.0000000000002" y="810" width="100" height="40" as="geometry" />
        </mxCell>
        <mxCell id="X0qwM8O_w4ARA05M2sBW-23" value="Belongs to" style="shape=rhombus;perimeter=rhombusPerimeter;whiteSpace=wrap;html=1;align=center;" vertex="1" parent="1">
          <mxGeometry x="-240" y="310" width="120" height="60" as="geometry" />
        </mxCell>
        <mxCell id="X0qwM8O_w4ARA05M2sBW-24" value="" style="endArrow=none;html=1;rounded=0;exitX=1;exitY=0.5;exitDx=0;exitDy=0;" edge="1" parent="1" source="X0qwM8O_w4ARA05M2sBW-1">
          <mxGeometry relative="1" as="geometry">
            <mxPoint x="210" y="360" as="sourcePoint" />
            <mxPoint x="-120" y="340" as="targetPoint" />
            <Array as="points">
              <mxPoint x="10" y="470" />
              <mxPoint x="10" y="340" />
            </Array>
          </mxGeometry>
        </mxCell>
        <mxCell id="X0qwM8O_w4ARA05M2sBW-25" value="" style="endArrow=none;html=1;rounded=0;exitX=0.5;exitY=0;exitDx=0;exitDy=0;entryX=0;entryY=0;entryDx=0;entryDy=0;" edge="1" parent="1" source="X0qwM8O_w4ARA05M2sBW-23" target="8_MltZdfGdoI-M6Byp3I-32">
          <mxGeometry relative="1" as="geometry">
            <mxPoint x="340" y="560" as="sourcePoint" />
            <mxPoint x="500" y="560" as="targetPoint" />
            <Array as="points">
              <mxPoint x="-180" y="110" />
              <mxPoint x="970" y="110" />
              <mxPoint x="970" y="230" />
            </Array>
          </mxGeometry>
        </mxCell>
        <mxCell id="X0qwM8O_w4ARA05M2sBW-26" value="N" style="text;html=1;align=center;verticalAlign=middle;whiteSpace=wrap;rounded=0;" vertex="1" parent="1">
          <mxGeometry x="-180" y="490" width="60" height="30" as="geometry" />
        </mxCell>
        <mxCell id="X0qwM8O_w4ARA05M2sBW-27" value="1" style="text;html=1;align=center;verticalAlign=middle;whiteSpace=wrap;rounded=0;" vertex="1" parent="1">
          <mxGeometry x="-180" y="750" width="60" height="30" as="geometry" />
        </mxCell>
        <mxCell id="X0qwM8O_w4ARA05M2sBW-28" value="N" style="text;html=1;align=center;verticalAlign=middle;whiteSpace=wrap;rounded=0;" vertex="1" parent="1">
          <mxGeometry x="-120" y="310" width="60" height="30" as="geometry" />
        </mxCell>
        <mxCell id="X0qwM8O_w4ARA05M2sBW-29" value="1" style="text;html=1;align=center;verticalAlign=middle;whiteSpace=wrap;rounded=0;" vertex="1" parent="1">
          <mxGeometry x="-240" y="280" width="60" height="30" as="geometry" />
        </mxCell>
        <mxCell id="X0qwM8O_w4ARA05M2sBW-30" value="Task_statistics" style="whiteSpace=wrap;html=1;align=center;" vertex="1" parent="1">
          <mxGeometry x="30" y="570" width="100" height="40" as="geometry" />
        </mxCell>
        <mxCell id="X0qwM8O_w4ARA05M2sBW-32" value="" style="endArrow=none;html=1;rounded=0;exitX=0.75;exitY=1;exitDx=0;exitDy=0;" edge="1" parent="1" source="X0qwM8O_w4ARA05M2sBW-30" target="X0qwM8O_w4ARA05M2sBW-33">
          <mxGeometry relative="1" as="geometry">
            <mxPoint y="610" as="sourcePoint" />
            <mxPoint x="140" y="660" as="targetPoint" />
          </mxGeometry>
        </mxCell>
        <mxCell id="X0qwM8O_w4ARA05M2sBW-33" value="ID" style="ellipse;whiteSpace=wrap;html=1;align=center;fontStyle=4;" vertex="1" parent="1">
          <mxGeometry x="90" y="640" width="100" height="40" as="geometry" />
        </mxCell>
        <mxCell id="X0qwM8O_w4ARA05M2sBW-34" value="" style="endArrow=none;html=1;rounded=0;entryX=0.5;entryY=1;entryDx=0;entryDy=0;exitX=0.5;exitY=0;exitDx=0;exitDy=0;" edge="1" parent="1" source="X0qwM8O_w4ARA05M2sBW-35" target="X0qwM8O_w4ARA05M2sBW-30">
          <mxGeometry relative="1" as="geometry">
            <mxPoint x="60" y="680" as="sourcePoint" />
            <mxPoint x="160" y="610" as="targetPoint" />
          </mxGeometry>
        </mxCell>
        <mxCell id="X0qwM8O_w4ARA05M2sBW-35" value="Value" style="ellipse;whiteSpace=wrap;html=1;align=center;" vertex="1" parent="1">
          <mxGeometry x="10" y="690" width="100" height="40" as="geometry" />
        </mxCell>
        <mxCell id="X0qwM8O_w4ARA05M2sBW-36" value="" style="endArrow=none;html=1;rounded=0;entryX=0.25;entryY=1;entryDx=0;entryDy=0;exitX=0.5;exitY=0;exitDx=0;exitDy=0;" edge="1" parent="1" source="X0qwM8O_w4ARA05M2sBW-37" target="X0qwM8O_w4ARA05M2sBW-30">
          <mxGeometry relative="1" as="geometry">
            <mxPoint x="-10" y="670" as="sourcePoint" />
            <mxPoint x="160" y="610" as="targetPoint" />
          </mxGeometry>
        </mxCell>
        <mxCell id="X0qwM8O_w4ARA05M2sBW-37" value="&lt;span style=&quot;border-bottom: 1px dotted&quot;&gt;User_id&lt;/span&gt;" style="ellipse;whiteSpace=wrap;html=1;align=center;" vertex="1" parent="1">
          <mxGeometry x="-100" y="660" width="100" height="40" as="geometry" />
        </mxCell>
        <mxCell id="X0qwM8O_w4ARA05M2sBW-41" value="Has" style="shape=rhombus;perimeter=rhombusPerimeter;whiteSpace=wrap;html=1;align=center;" vertex="1" parent="1">
          <mxGeometry x="20" y="470" width="120" height="60" as="geometry" />
        </mxCell>
        <mxCell id="X0qwM8O_w4ARA05M2sBW-42" value="" style="endArrow=none;html=1;rounded=0;exitX=0.5;exitY=0;exitDx=0;exitDy=0;entryX=0.5;entryY=1;entryDx=0;entryDy=0;" edge="1" parent="1" source="X0qwM8O_w4ARA05M2sBW-30" target="X0qwM8O_w4ARA05M2sBW-41">
          <mxGeometry relative="1" as="geometry">
            <mxPoint x="60" y="500" as="sourcePoint" />
            <mxPoint x="220" y="500" as="targetPoint" />
          </mxGeometry>
        </mxCell>
        <mxCell id="X0qwM8O_w4ARA05M2sBW-43" value="" style="endArrow=none;html=1;rounded=0;entryX=0.25;entryY=0;entryDx=0;entryDy=0;exitX=0.5;exitY=0;exitDx=0;exitDy=0;" edge="1" parent="1" source="X0qwM8O_w4ARA05M2sBW-41" target="8_MltZdfGdoI-M6Byp3I-56">
          <mxGeometry relative="1" as="geometry">
            <mxPoint x="170" y="500" as="sourcePoint" />
            <mxPoint x="330" y="500" as="targetPoint" />
            <Array as="points">
              <mxPoint x="80" y="440" />
              <mxPoint x="430" y="440" />
            </Array>
          </mxGeometry>
        </mxCell>
        <mxCell id="X0qwM8O_w4ARA05M2sBW-44" value="1" style="text;html=1;align=center;verticalAlign=middle;whiteSpace=wrap;rounded=0;" vertex="1" parent="1">
          <mxGeometry x="80" y="525" width="60" height="30" as="geometry" />
        </mxCell>
        <mxCell id="X0qwM8O_w4ARA05M2sBW-45" value="1" style="text;html=1;align=center;verticalAlign=middle;whiteSpace=wrap;rounded=0;" vertex="1" parent="1">
          <mxGeometry x="80" y="445" width="60" height="30" as="geometry" />
        </mxCell>
      </root>
    </mxGraphModel>
  </diagram>
</mxfile>
